<?xml version="1.0" encoding="utf-8"?>
<!-- Generator: Adobe Illustrator 23.0.3, SVG Export Plug-In . SVG Version: 6.00 Build 0)  -->
<svg version="1.1" xmlns="http://www.w3.org/2000/svg" xmlns:xlink="http://www.w3.org/1999/xlink" x="163.8px" y="35px"
	 viewBox="0 0 163.8 35" style="enable-background:new 0 0 163.8 35;" xml:space="preserve">
<style type="text/css">
	.logo_x002D_color_x002D_dark{fill:#016699;}
	.logo_x002D_color_x002D_light{fill:#FFCD05;}
</style>
<g id="Text">
	<g id="Text_Primary">
		<path id="_x34__1_" class="logo_x002D_color_x002D_dark" d="M163.8,25.6v-7.4H159V3.8h-12.5l-16.9,14.9v6.9h18.8V28
			c0,2.1-0.4,3-1,3.9H160c-0.6-0.8-1-1.8-1-3.9v-2.5H163.8z M148.4,18.2h-11l11-9.3V18.2z"/>
		<path id="_x32__1_" class="logo_x002D_color_x002D_dark" d="M109.3,27.2v-3.5c0-0.9,0.2-1.8,1.3-1.9l10.7-0.5
			c4.7-0.2,6.3-1.4,6.3-5.6v-5.6c0-4-1.1-6.4-7.5-6.4H99.3l-0.9,5.7c1.3-0.7,2.8-1,4.4-1h12.3c1.6,0,2.1,0.5,2.1,1.3v1.5
			c0,1.1-0.3,1.5-1.7,1.5L104,13.4c-3.7,0.2-5.5,1.2-5.5,5.9v12.5h28.3l1-5.9c-2.4,0.9-3,1.2-5.9,1.2H109.3z"/>
		<path id="_x33__1_" class="logo_x002D_color_x002D_dark" d="M68.1,3.7l-1,5.7c1.1-0.5,2.1-1.1,4-1.1h11.4c1.6,0,1.9,0.3,1.9,1.7
			v3.4c0,1.5-0.3,1.7-1.9,1.7h-5.1c-2.5,0-3.7-0.4-4.9-0.8v6.2c1.2-0.3,2.4-0.7,4.9-0.7h5.1c1.6,0,1.9,0.3,1.9,1.7v3.9
			c0,1.4-0.3,1.7-1.9,1.7H72c-2.3,0-3.7-0.7-4.9-1.4l1,6h21.4c4.2,0,5.7-2,5.7-5v-4.7c0-3.4-0.8-4.5-6.6-4.7v-0.1
			c4.8,0,6.6-1.2,6.6-3.6V9.3c0-4-2.2-5.5-7.7-5.5H68.1z"/>
		<path id="T_1_" class="logo_x002D_color_x002D_dark" d="M36.8,3.7l-0.9,5.8c1.2-0.7,2-1.1,4-1.1h4.9v18.7c0,2.7-0.4,3.7-0.9,4.8
			h12.5c-0.5-1.1-0.9-2.2-0.9-4.8V8.4h4.9c2,0,2.8,0.4,4,1.1l-0.9-5.8H36.8z"/>
	</g>
</g>
<g id="Emblem">
	<g id="Emblem_Primary">
		<path id="Dark" class="logo_x002D_color_x002D_dark" d="M33.1,2.3c1.3,1.6,0.9,4.6-0.7,6.4c-1.7,1.9-4.5,1.6-6.3-0.4
			c-1.7-2-1.4-4.8,0.7-6.2C28.9,0.8,31.8,0.8,33.1,2.3L33.1,2.3z M2.2,8.2c1.4,2.1,4.2,2.4,6.2,0.7c2-1.7,2.2-4.6,0.4-6.3
			C6.9,1,3.9,0.7,2.3,1.9C0.8,3.2,0.8,6.1,2.2,8.2L2.2,8.2z M21.1,34c1.5-1.2,1.3-3.3-0.5-4.7c-1.8-1.4-4.6-1.2-6.2,0.4
			c-1.6,1.6-1.4,3.6,0.4,4.6C16.7,35.3,19.6,35.2,21.1,34L21.1,34z M13.9,1c-1.6,1.2-1.3,3.3,0.5,4.7C16.3,7,19,6.8,20.6,5.3
			c1.6-1.6,1.4-3.6-0.4-4.6C18.3-0.3,15.4-0.2,13.9,1L13.9,1z M13.6,20.9c1.8,2.1,5.1,2.4,7.3,0.6c2.1-1.8,2.4-5.1,0.6-7.3
			c-1.8-2.1-5.1-2.4-7.3-0.6C12,15.4,11.8,18.7,13.6,20.9L13.6,20.9z M19.4,27.1c0.8-0.9,0.7-2.2-0.3-3c-1-0.8-2.4-0.7-3.3,0.2
			c-0.8,0.9-0.7,2.3,0.2,3C17.1,28.1,18.6,28,19.4,27.1L19.4,27.1z M15.6,7.9c-0.8,0.9-0.7,2.2,0.3,3c1,0.8,2.4,0.7,3.3-0.2
			c0.8-0.9,0.7-2.3-0.2-3C17.9,6.9,16.4,7,15.6,7.9L15.6,7.9z"/>
		<path id="Light" class="logo_x002D_color_x002D_light" d="M32.8,26.8c1.4,2.1,1.4,5-0.1,6.3c-1.6,1.3-4.6,0.9-6.4-0.7
			c-1.9-1.7-1.6-4.5,0.4-6.3C28.6,24.4,31.4,24.7,32.8,26.8L32.8,26.8z M34,21.1c1.2-1.5,1.3-4.4,0.3-6.3c-1-1.8-3-2-4.6-0.4
			c-1.6,1.6-1.8,4.3-0.4,6.2C30.7,22.4,32.9,22.7,34,21.1L34,21.1z M26.2,22.5c-0.9-1.2-2.6-1.3-3.7-0.3c-1.1,1-1.3,2.7-0.3,3.7
			c1,1.1,2.7,1.2,3.8,0.3C27,25.3,27.1,23.6,26.2,22.5L26.2,22.5z M27.1,19.4c0.9-0.8,1-2.3,0.2-3.3c-0.7-1-2.1-1.1-3-0.2
			c-0.9,0.8-1,2.3-0.2,3.3C24.9,20.1,26.2,20.2,27.1,19.4L27.1,19.4z M26.2,9c-0.9-1.1-2.6-1.2-3.8-0.2c-1.2,0.9-1.3,2.6-0.3,3.7
			c1,1.1,2.7,1.3,3.7,0.3C27,11.8,27.1,10.1,26.2,9L26.2,9z M1,13.9c-1.2,1.6-1.3,4.4-0.3,6.3c1,1.8,3,2,4.6,0.4
			C6.8,19,7,16.3,5.7,14.4C4.3,12.6,2.1,12.3,1,13.9L1,13.9z M1.9,32.7c1.3,1.6,4.1,1.5,6.3,0.1c2.1-1.4,2.4-4.2,0.7-6.2
			c-1.7-2-4.6-2.2-6.3-0.4C1,28.1,0.7,31.1,1.9,32.7L1.9,32.7z M8.8,12.5c0.9,1.2,2.6,1.3,3.7,0.3c1.1-1,1.3-2.7,0.3-3.7
			C11.8,8,10.1,7.9,9,8.8C8,9.7,7.9,11.4,8.8,12.5L8.8,12.5z M7.9,15.6c-0.9,0.8-1,2.3-0.2,3.3c0.7,1,2.1,1.1,3,0.2
			c0.9-0.8,1-2.3,0.2-3.3C10.1,14.9,8.8,14.8,7.9,15.6L7.9,15.6z M8.8,26c0.9,1.1,2.6,1.2,3.7,0.2c1.2-0.9,1.3-2.6,0.3-3.7
			c-1-1.1-2.7-1.3-3.8-0.3C8,23.2,7.9,24.9,8.8,26L8.8,26z"/>
	</g>
</g>
</svg>
